<svg width="512.000000" height="512.000000" viewBox="0 0 512 512" fill="none" xmlns="http://www.w3.org/2000/svg" xmlns:xlink="http://www.w3.org/1999/xlink">
	<desc>
			Created with Pixso.
	</desc>
	<defs>
		<linearGradient x1="0.000061" y1="-0.000031" x2="512.000244" y2="511.999847" id="paint_linear_77_65_0" gradientUnits="userSpaceOnUse">
			<stop stop-color="#2196F3"/>
			<stop offset="1.000000" stop-color="#6DB7F2"/>
		</linearGradient>
	</defs>
	<path id="icon" d="M64 0L448 0C483.346 0 512 28.6538 512 64L512 448C512 483.346 483.346 512 448 512L64 512C28.6538 512 0 483.346 0 448L0 64C0 28.6538 28.6538 0 64 0ZM122.5 67L122.5 431L235.25 431Q274.678 430.794 307.459 415.928Q314.378 412.79 321 409Q337.534 399.536 350.826 386.712Q368.083 370.063 379.875 347.75Q400.75 308.25 400.75 257.5L400.75 240.75Q400.75 191.596 380.816 152.644Q380.168 151.379 379.5 150.125Q366.444 125.626 347.113 108.017Q334.98 96.964 320.375 88.625Q314.785 85.4331 308.974 82.7123Q275.415 67 234.5 67L122.5 67ZM197.5 370.75L197.5 127.75L234.5 127.75Q267.238 127.75 288.345 143.419Q295.767 148.928 301.75 156.375Q324.75 185 324.75 240.5L324.75 259.75Q324.25 313.25 301 342Q294.635 349.87 286.716 355.586Q265.706 370.75 233.75 370.75L197.5 370.75Z" clip-rule="evenodd" fill="url(#paint_linear_77_65_0)" fill-opacity="1.000000" fill-rule="evenodd"/>
</svg>
